<svg width="154" height="202" viewBox="0 0 154 202" fill="none" xmlns="http://www.w3.org/2000/svg">
<path d="M63.632 125.456C63.4613 125.456 62.9493 125.371 62.096 125.2C61.328 125.029 60.56 124.816 59.792 124.56C59.1093 124.304 58.7253 124.005 58.64 123.664C58.4693 122.043 58.896 119.739 59.92 116.752C60.944 113.765 62.3093 110.437 64.016 106.768C65.808 103.013 67.6427 99.344 69.52 95.76C69.1787 95.76 68.7947 95.76 68.368 95.76C68.0267 95.6747 67.6427 95.632 67.216 95.632C66.192 95.4613 65.68 94.992 65.68 94.224C65.68 93.7973 66.1493 93.584 67.088 93.584C67.7707 93.584 68.368 93.6267 68.88 93.712C69.392 93.712 69.9467 93.712 70.544 93.712C72.2507 90.4693 73.8293 87.568 75.28 85.008C76.7307 82.3627 77.7547 80.3573 78.352 78.992C78.864 78.0533 79.2053 77.2853 79.376 76.688C79.5467 76.0053 79.632 75.4933 79.632 75.152C79.632 74.64 79.5467 74.2133 79.376 73.872C79.5467 72.848 80.144 71.4827 81.168 69.776C82.2773 68.0693 83.6427 66.3627 85.264 64.656C86.8853 62.9493 88.6347 61.5413 90.512 60.432C92.3893 59.2373 94.1387 58.64 95.76 58.64C96.272 58.64 97.04 58.8107 98.064 59.152C99.1733 59.408 100.24 59.8347 101.264 60.432C102.288 61.0293 102.928 61.8827 103.184 62.992C103.269 63.1627 103.312 63.4187 103.312 63.76C103.312 64.016 103.184 64.144 102.928 64.144C102.757 64.144 102.501 64.1013 102.16 64.016C101.904 63.8453 101.691 63.76 101.52 63.76C99.6427 63.76 97.5947 64.656 95.376 66.448C93.2427 68.1547 91.024 70.4587 88.72 73.36C86.416 76.2613 84.112 79.504 81.808 83.088C79.5893 86.5867 77.456 90.128 75.408 93.712C79.6747 93.5413 84.1973 93.0293 88.976 92.176C93.7547 91.2373 98.4907 90 103.184 88.464C107.877 86.928 112.229 85.0507 116.24 82.832C120.251 80.6133 123.621 78.096 126.352 75.28C129.339 72.1227 130.832 68.88 130.832 65.552C130.832 63.0773 129.893 60.7733 128.016 58.64C126.139 56.5067 123.195 54.8853 119.184 53.776C116.795 53.0933 114.064 52.5813 110.992 52.24C108.005 51.8987 104.763 51.728 101.264 51.728C95.8027 51.728 90.1707 52.1973 84.368 53.136C78.6507 54.0747 73.2747 55.5253 68.24 57.488C63.2053 59.3653 58.9813 61.7547 55.568 64.656C52.1547 67.5573 50.1067 71.0133 49.424 75.024C49.168 77.072 49.552 78.6933 50.576 79.888C51.6 81.0827 52.8373 82.0213 54.288 82.704C55.824 83.3013 57.0187 83.856 57.872 84.368C58.4693 84.88 58.768 85.3067 58.768 85.648C58.768 86.2453 58.2133 86.4587 57.104 86.288C55.9093 86.032 54.416 85.4347 52.624 84.496C50.9173 83.5573 49.3813 82.2773 48.016 80.656C46.736 78.9493 46.096 76.9867 46.096 74.768C46.096 74.4267 46.096 74.0853 46.096 73.744C46.1813 73.4027 46.2667 73.0613 46.352 72.72C46.352 72.6347 46.3093 72.3787 46.224 71.952C46.224 71.44 46.224 71.0133 46.224 70.672C46.736 68.0267 48.016 65.552 50.064 63.248C52.1973 60.8587 54.5867 58.768 57.232 56.976C59.9627 55.0987 62.48 53.6053 64.784 52.496C68.7947 50.5333 73.616 48.9973 79.248 47.888C84.88 46.6933 90.768 46.096 96.912 46.096C100.667 46.096 104.379 46.352 108.048 46.864C111.803 47.376 115.429 48.1867 118.928 49.296C123.792 50.9173 127.547 53.4347 130.192 56.848C132.923 60.176 134.16 63.6747 133.904 67.344C133.648 70.8427 132.411 74 130.192 76.816C128.059 79.632 125.285 82.1067 121.872 84.24C118.544 86.288 114.832 88.08 110.736 89.616C106.725 91.0667 102.672 92.2613 98.576 93.2C94.6507 94.0533 90.4693 94.6933 86.032 95.12C81.68 95.5467 77.7547 95.8027 74.256 95.888C72.208 99.5573 70.3733 103.013 68.752 106.256C67.216 109.499 66.064 112.101 65.296 114.064C64.6133 115.941 64.272 117.264 64.272 118.032C64.272 119.227 64.7413 119.824 65.68 119.824C66.8747 119.824 68.1547 119.013 69.52 117.392C70.4587 116.283 71.312 115.259 72.08 114.32C72.9333 113.296 73.6587 112.869 74.256 113.04C74.3413 113.125 74.384 113.253 74.384 113.424C74.384 113.851 74.0853 114.448 73.488 115.216C72.8907 115.899 72.5493 116.283 72.464 116.368C71.8667 117.221 71.056 118.373 70.032 119.824C69.0933 121.275 68.0693 122.555 66.96 123.664C65.936 124.859 64.8267 125.456 63.632 125.456Z" fill="#324B4F"/>
<path d="M6.084 186.972C6.036 186.972 5.892 186.948 5.652 186.9C5.436 186.852 5.22 186.792 5.004 186.72C4.812 186.648 4.704 186.564 4.68 186.468C4.632 186.012 4.752 185.364 5.04 184.524C5.328 183.684 5.712 182.748 6.192 181.716C6.696 180.66 7.212 179.628 7.74 178.62C7.644 178.62 7.536 178.62 7.416 178.62C7.32 178.596 7.212 178.584 7.092 178.584C6.804 178.536 6.66 178.404 6.66 178.188C6.66 178.068 6.792 178.008 7.056 178.008C7.248 178.008 7.416 178.02 7.56 178.044C7.704 178.044 7.86 178.044 8.028 178.044C8.508 177.132 8.952 176.316 9.36 175.596C9.768 174.852 10.056 174.288 10.224 173.904C10.368 173.64 10.464 173.424 10.512 173.256C10.56 173.064 10.584 172.92 10.584 172.824C10.584 172.68 10.56 172.56 10.512 172.464C10.56 172.176 10.728 171.792 11.016 171.312C11.328 170.832 11.712 170.352 12.168 169.872C12.624 169.392 13.116 168.996 13.644 168.684C14.172 168.348 14.664 168.18 15.12 168.18C15.264 168.18 15.48 168.228 15.768 168.324C16.08 168.396 16.38 168.516 16.668 168.684C16.956 168.852 17.136 169.092 17.208 169.404C17.232 169.452 17.244 169.524 17.244 169.62C17.244 169.692 17.208 169.728 17.136 169.728C17.088 169.728 17.016 169.716 16.92 169.692C16.848 169.644 16.788 169.62 16.74 169.62C16.212 169.62 15.636 169.872 15.012 170.376C14.412 170.856 13.788 171.504 13.14 172.32C12.492 173.136 11.844 174.048 11.196 175.056C10.572 176.04 9.972 177.036 9.396 178.044C10.596 177.996 11.868 177.852 13.212 177.612C14.556 177.348 15.888 177 17.208 176.568C18.528 176.136 19.752 175.608 20.88 174.984C22.008 174.36 22.956 173.652 23.724 172.86C24.564 171.972 24.984 171.06 24.984 170.124C24.984 169.428 24.72 168.78 24.192 168.18C23.664 167.58 22.836 167.124 21.708 166.812C21.036 166.62 20.268 166.476 19.404 166.38C18.564 166.284 17.652 166.236 16.668 166.236C15.132 166.236 13.548 166.368 11.916 166.632C10.308 166.896 8.796 167.304 7.38 167.856C5.964 168.384 4.776 169.056 3.816 169.872C2.856 170.688 2.28 171.66 2.088 172.788C2.016 173.364 2.124 173.82 2.412 174.156C2.7 174.492 3.048 174.756 3.456 174.948C3.888 175.116 4.224 175.272 4.464 175.416C4.632 175.56 4.716 175.68 4.716 175.776C4.716 175.944 4.56 176.004 4.248 175.956C3.912 175.884 3.492 175.716 2.988 175.452C2.508 175.188 2.076 174.828 1.692 174.372C1.332 173.892 1.152 173.34 1.152 172.716C1.152 172.62 1.152 172.524 1.152 172.428C1.176 172.332 1.2 172.236 1.224 172.14C1.224 172.116 1.212 172.044 1.188 171.924C1.188 171.78 1.188 171.66 1.188 171.564C1.332 170.82 1.692 170.124 2.268 169.476C2.868 168.804 3.54 168.216 4.284 167.712C5.052 167.184 5.76 166.764 6.408 166.452C7.536 165.9 8.892 165.468 10.476 165.156C12.06 164.82 13.716 164.652 15.444 164.652C16.5 164.652 17.544 164.724 18.576 164.868C19.632 165.012 20.652 165.24 21.636 165.552C23.004 166.008 24.06 166.716 24.804 167.676C25.572 168.612 25.92 169.596 25.848 170.628C25.776 171.612 25.428 172.5 24.804 173.292C24.204 174.084 23.424 174.78 22.464 175.38C21.528 175.956 20.484 176.46 19.332 176.892C18.204 177.3 17.064 177.636 15.912 177.9C14.808 178.14 13.632 178.32 12.384 178.44C11.16 178.56 10.056 178.632 9.072 178.656C8.496 179.688 7.98 180.66 7.524 181.572C7.092 182.484 6.768 183.216 6.552 183.768C6.36 184.296 6.264 184.668 6.264 184.884C6.264 185.22 6.396 185.388 6.66 185.388C6.996 185.388 7.356 185.16 7.74 184.704C8.004 184.392 8.244 184.104 8.46 183.84C8.7 183.552 8.904 183.432 9.072 183.48C9.096 183.504 9.108 183.54 9.108 183.588C9.108 183.708 9.024 183.876 8.856 184.092C8.688 184.284 8.592 184.392 8.568 184.416C8.4 184.656 8.172 184.98 7.884 185.388C7.62 185.796 7.332 186.156 7.02 186.468C6.732 186.804 6.42 186.972 6.084 186.972ZM30.8551 186.36C30.4471 186.36 30.0631 186.264 29.7031 186.072C29.3671 185.88 29.1151 185.52 28.9471 184.992C28.8751 184.776 28.8391 184.476 28.8391 184.092C28.8391 183.564 28.9111 182.976 29.0551 182.328C29.1991 181.68 29.3551 181.128 29.5231 180.672C29.4031 180.72 29.1751 180.936 28.8391 181.32C28.5271 181.68 28.1311 182.124 27.6511 182.652C27.1951 183.156 26.6791 183.672 26.1031 184.2C25.5511 184.704 24.9751 185.124 24.3751 185.46C23.7751 185.796 23.1871 185.964 22.6111 185.964C22.2271 185.964 21.8191 185.856 21.3871 185.64C20.9551 185.4 20.6071 185.1 20.3431 184.74C19.9831 184.26 19.8031 183.768 19.8031 183.264C19.8031 182.616 20.0191 181.944 20.4511 181.248C20.9071 180.552 21.4831 179.88 22.1791 179.232C22.8991 178.56 23.6551 177.96 24.4471 177.432C25.2631 176.88 26.0311 176.424 26.7511 176.064C27.4951 175.68 28.0951 175.428 28.5511 175.308C29.0311 175.164 29.5711 175.092 30.1711 175.092C30.5071 175.092 30.8551 175.14 31.2151 175.236C31.5751 175.308 31.8751 175.44 32.1151 175.632C32.3071 175.728 32.4631 175.86 32.5831 176.028C32.7031 176.196 32.7631 176.376 32.7631 176.568C32.7631 176.76 32.6791 176.82 32.5111 176.748C32.3191 176.46 32.0551 176.28 31.7191 176.208C31.4071 176.112 31.0831 176.064 30.7471 176.064C29.7871 176.064 28.7311 176.376 27.5791 177C26.4271 177.624 25.3951 178.356 24.4831 179.196C24.1951 179.436 23.7991 179.856 23.2951 180.456C22.8151 181.032 22.3711 181.668 21.9631 182.364C21.5551 183.06 21.3511 183.696 21.3511 184.272C21.3511 184.584 21.4351 184.86 21.6031 185.1C21.6991 185.268 21.8551 185.352 22.0711 185.352C22.4071 185.352 22.8511 185.172 23.4031 184.812C23.9791 184.452 24.5671 184.02 25.1671 183.516C25.7671 182.988 26.3071 182.484 26.7871 182.004C27.2911 181.524 27.6511 181.176 27.8671 180.96C27.9871 180.84 28.2151 180.6 28.5511 180.24C28.9111 179.856 29.2951 179.448 29.7031 179.016C30.1111 178.584 30.4711 178.212 30.7831 177.9C31.1191 177.588 31.3351 177.432 31.4311 177.432C31.5511 177.432 31.7431 177.468 32.0071 177.54C32.2951 177.588 32.5351 177.672 32.7271 177.792C32.9191 177.912 32.9551 178.068 32.8351 178.26C32.2111 179.172 31.7071 180.132 31.3231 181.14C30.9631 182.124 30.7471 182.904 30.6751 183.48C30.6511 183.576 30.6391 183.672 30.6391 183.768C30.6391 183.84 30.6391 183.924 30.6391 184.02C30.6391 184.98 30.9751 185.46 31.6471 185.46C32.0071 185.46 32.4871 185.244 33.0871 184.812C33.6871 184.38 34.2991 183.864 34.9231 183.264C35.5471 182.664 36.1111 182.088 36.6151 181.536C37.1431 180.96 37.5031 180.528 37.6951 180.24C37.7671 180.168 37.8391 180.132 37.9111 180.132C38.0071 180.132 38.0911 180.18 38.1631 180.276C38.2351 180.348 38.2351 180.444 38.1631 180.564C37.8991 180.996 37.5151 181.512 37.0111 182.112C36.5071 182.712 35.9431 183.312 35.3191 183.912C34.6951 184.512 34.0831 185.028 33.4831 185.46C33.1711 185.7 32.7751 185.904 32.2951 186.072C31.8151 186.264 31.3351 186.36 30.8551 186.36ZM36.5116 186.468C36.3196 186.468 36.2596 186.384 36.3316 186.216C36.4276 186.048 36.5956 185.628 36.8356 184.956C37.0996 184.26 37.3876 183.444 37.6996 182.508C38.0356 181.572 38.3596 180.672 38.6716 179.808C38.4316 180.168 38.1676 180.516 37.8796 180.852C37.6156 181.188 37.3876 181.464 37.1956 181.68C37.1236 181.752 37.0756 181.788 37.0516 181.788C36.9796 181.788 36.9436 181.716 36.9436 181.572C36.9436 181.284 37.0156 181.02 37.1596 180.78C37.6636 180.132 38.0476 179.628 38.3116 179.268C38.5756 178.884 38.7916 178.548 38.9596 178.26C39.1516 177.948 39.3436 177.6 39.5356 177.216C39.5836 176.952 39.6676 176.628 39.7876 176.244C39.9316 175.86 40.2556 175.668 40.7596 175.668C41.5036 175.668 41.8756 175.824 41.8756 176.136C41.8756 176.232 41.8516 176.34 41.8036 176.46C41.7556 176.556 41.7076 176.664 41.6596 176.784C41.3716 177.432 41.0596 178.176 40.7236 179.016C40.3876 179.856 40.0756 180.648 39.7876 181.392C39.5236 182.136 39.3196 182.712 39.1756 183.12C39.4396 182.784 39.8356 182.316 40.3636 181.716C40.8916 181.092 41.4916 180.42 42.1636 179.7C42.8596 178.956 43.5676 178.26 44.2876 177.612C45.0316 176.94 45.7276 176.388 46.3756 175.956C47.0236 175.524 47.5756 175.308 48.0316 175.308C48.5836 175.308 48.8596 175.62 48.8596 176.244C48.8596 176.724 48.6676 177.348 48.2836 178.116C48.1156 178.476 47.8876 178.968 47.5996 179.592C47.3116 180.192 47.0836 180.648 46.9156 180.96C47.3476 180.576 47.8396 180.156 48.3916 179.7C48.9436 179.22 49.5196 178.776 50.1196 178.368C50.7436 177.96 51.3196 177.66 51.8476 177.468C51.9676 177.42 52.2076 177.348 52.5676 177.252C52.9276 177.132 53.2396 177.072 53.5036 177.072C53.8636 177.072 54.0436 177.192 54.0436 177.432C54.0436 177.6 53.9596 177.78 53.7916 177.972C53.3836 178.596 53.0116 179.268 52.6756 179.988C52.3636 180.684 52.1116 181.344 51.9196 181.968C51.7276 182.592 51.6076 183.096 51.5596 183.48C51.5356 183.576 51.5236 183.672 51.5236 183.768C51.5236 183.84 51.5236 183.924 51.5236 184.02C51.5236 184.98 51.8356 185.46 52.4596 185.46C52.8436 185.46 53.3356 185.256 53.9356 184.848C54.5356 184.416 55.1476 183.9 55.7716 183.3C56.3956 182.676 56.9596 182.088 57.4636 181.536C57.9916 180.96 58.3516 180.528 58.5436 180.24C58.6156 180.168 58.6876 180.132 58.7596 180.132C58.8556 180.132 58.9276 180.168 58.9756 180.24C59.0476 180.312 59.0596 180.408 59.0116 180.528C58.7956 180.936 58.4236 181.452 57.8956 182.076C57.3916 182.676 56.8156 183.288 56.1676 183.912C55.5436 184.512 54.9316 185.028 54.3316 185.46C54.0196 185.7 53.6236 185.904 53.1436 186.072C52.6876 186.264 52.2196 186.36 51.7396 186.36C51.3076 186.36 50.9116 186.264 50.5516 186.072C50.2156 185.88 49.9636 185.52 49.7956 184.992C49.7236 184.776 49.6876 184.5 49.6876 184.164C49.6876 183.636 49.7596 183.036 49.9036 182.364C50.0476 181.692 50.2036 181.128 50.3716 180.672C50.4916 180.336 50.6476 179.964 50.8396 179.556C51.0556 179.124 51.2476 178.764 51.4156 178.476C50.6716 178.764 49.9516 179.196 49.2556 179.772C48.5596 180.348 47.9236 180.936 47.3476 181.536C46.7956 182.112 46.3276 182.592 45.9436 182.976C45.8476 183.24 45.6556 183.456 45.3676 183.624C45.1036 183.792 44.8516 183.876 44.6116 183.876C44.2516 183.876 44.0716 183.72 44.0716 183.408C44.0716 183.288 44.1076 183.144 44.1796 182.976C44.4196 182.4 44.6836 181.812 44.9716 181.212C45.2836 180.588 45.5596 180.024 45.7996 179.52C46.0636 179.016 46.2436 178.668 46.3396 178.476C46.5316 178.14 46.6276 177.876 46.6276 177.684C46.6276 177.492 46.5436 177.396 46.3756 177.396C46.2076 177.396 45.9316 177.504 45.5476 177.72C45.1636 177.936 44.6596 178.32 44.0356 178.872C43.5316 179.328 42.9796 179.928 42.3796 180.672C41.7796 181.392 41.2036 182.136 40.6516 182.904C40.0996 183.672 39.6076 184.332 39.1756 184.884C38.7676 185.436 38.4796 185.76 38.3116 185.856C38.1676 185.928 37.8796 186.048 37.4476 186.216C37.0396 186.384 36.7276 186.468 36.5116 186.468ZM52.0639 198.312C51.7759 198.312 51.6319 198.192 51.6319 197.952C51.6319 197.856 51.6679 197.724 51.7399 197.556C52.0279 196.932 52.4359 195.996 52.9639 194.748C53.4919 193.524 54.0799 192.108 54.7279 190.5C55.3519 188.916 55.9879 187.284 56.6359 185.604C57.2119 184.116 57.7639 182.664 58.2919 181.248C58.8439 179.832 59.2999 178.56 59.6599 177.432C60.0199 176.28 60.1999 175.392 60.1999 174.768C60.1999 174.576 60.3319 174.468 60.5959 174.444C60.8599 174.396 61.1119 174.372 61.3519 174.372C62.1439 174.372 62.5399 174.636 62.5399 175.164C62.5399 175.596 62.2999 176.16 61.8199 176.856C61.3879 177.552 61.0159 178.272 60.7039 179.016C60.3919 179.736 60.0799 180.48 59.7679 181.248C60.3439 180.48 60.8839 179.724 61.3879 178.98C61.8919 178.236 62.4799 177.6 63.1519 177.072C63.6799 176.664 64.1959 176.34 64.6999 176.1C65.2279 175.836 65.7919 175.704 66.3919 175.704C67.0159 175.704 67.6399 175.86 68.2639 176.172C68.8879 176.46 69.2479 176.928 69.3439 177.576C69.3679 177.648 69.3799 177.732 69.3799 177.828C69.3799 177.9 69.3799 177.972 69.3799 178.044C69.3799 178.884 69.1279 179.712 68.6239 180.528C68.1439 181.32 67.5679 182.028 66.8959 182.652C66.2239 183.276 65.5999 183.78 65.0239 184.164C64.5439 184.452 63.9559 184.764 63.2599 185.1C62.5879 185.436 61.8679 185.724 61.0999 185.964C60.3559 186.204 59.6359 186.324 58.9399 186.324C58.5079 186.324 58.1479 186.276 57.8599 186.18C57.5479 186.9 57.1879 187.824 56.7799 188.952C56.3719 190.104 55.9879 191.232 55.6279 192.336C55.4599 192.816 55.3999 193.2 55.4479 193.488C55.4959 193.8 55.4359 194.184 55.2679 194.64C55.1239 195.12 54.9679 195.576 54.7999 196.008C54.6319 196.464 54.4399 196.896 54.2239 197.304C54.1759 197.4 54.0319 197.532 53.7919 197.7C53.5279 197.868 53.2399 198.012 52.9279 198.132C52.5919 198.252 52.3039 198.312 52.0639 198.312ZM58.1479 185.604C58.9159 185.604 59.7199 185.424 60.5599 185.064C61.3999 184.704 62.2279 184.224 63.0439 183.624C63.8599 183.024 64.5919 182.376 65.2399 181.68C65.9119 180.96 66.4519 180.264 66.8599 179.592C67.3399 178.824 67.5799 178.116 67.5799 177.468C67.5799 176.724 67.2559 176.352 66.6079 176.352C66.4399 176.352 66.2359 176.388 65.9959 176.46C65.7559 176.508 65.4799 176.616 65.1679 176.784C63.8959 177.456 62.8519 178.248 62.0359 179.16C61.2199 180.048 60.5239 181.032 59.9479 182.112C59.3719 183.192 58.7719 184.356 58.1479 185.604ZM74.6769 186.54C73.5969 186.54 72.6609 186.288 71.8689 185.784C71.0769 185.28 70.6809 184.512 70.6809 183.48C70.6809 182.928 70.8489 182.256 71.1849 181.464C71.4249 180.912 71.8689 180.276 72.5169 179.556C73.1649 178.836 73.9209 178.14 74.7849 177.468C75.6489 176.772 76.5249 176.208 77.4129 175.776C78.3009 175.32 79.1049 175.092 79.8249 175.092C80.0889 175.092 80.3289 175.128 80.5449 175.2C80.9529 175.344 81.2289 175.572 81.3729 175.884C81.5409 176.196 81.6249 176.52 81.6249 176.856C81.6249 177.168 81.5769 177.468 81.4809 177.756C81.3849 178.044 81.2649 178.296 81.1209 178.512C80.6889 179.16 80.0649 179.736 79.2489 180.24C78.4569 180.744 77.6409 181.14 76.8009 181.428C75.9849 181.716 75.3129 181.884 74.7849 181.932H74.7129C74.4009 181.932 74.2449 181.836 74.2449 181.644C74.2449 181.524 74.3409 181.464 74.5329 181.464C75.1089 181.416 75.8289 181.152 76.6929 180.672C77.5809 180.168 78.3609 179.652 79.0329 179.124C79.3209 178.884 79.6569 178.548 80.0409 178.116C80.4489 177.684 80.6529 177.264 80.6529 176.856C80.6529 176.424 80.4489 176.208 80.0409 176.208C79.8249 176.208 79.5969 176.256 79.3569 176.352C79.1409 176.448 78.9609 176.52 78.8169 176.568C78.1209 176.904 77.3529 177.432 76.5129 178.152C75.6729 178.848 74.9049 179.64 74.2089 180.528C73.5369 181.392 73.0689 182.268 72.8049 183.156C72.7329 183.348 72.6849 183.54 72.6609 183.732C72.6369 183.9 72.6249 184.068 72.6249 184.236C72.6249 184.812 72.8049 185.22 73.1649 185.46C73.5489 185.7 74.0049 185.82 74.5329 185.82C75.3249 185.82 76.1409 185.652 76.9809 185.316C77.8209 184.956 78.6369 184.5 79.4289 183.948C80.2209 183.396 80.9409 182.808 81.5889 182.184C82.2609 181.536 82.8249 180.912 83.2809 180.312C83.3529 180.216 83.4369 180.168 83.5329 180.168C83.6289 180.144 83.6889 180.156 83.7129 180.204C83.8089 180.228 83.8569 180.3 83.8569 180.42C83.8569 180.516 83.8329 180.612 83.7849 180.708C83.1129 181.644 82.2969 182.556 81.3369 183.444C80.4009 184.332 79.3569 185.076 78.2049 185.676C77.0769 186.252 75.9009 186.54 74.6769 186.54ZM87.649 186.432C87.241 186.432 86.881 186.336 86.569 186.144C86.257 185.976 86.041 185.64 85.921 185.136C85.849 184.872 85.813 184.608 85.813 184.344C85.813 183.624 85.993 182.928 86.353 182.256C86.737 181.56 87.181 180.924 87.685 180.348C88.189 179.748 88.621 179.244 88.981 178.836C89.173 178.644 89.389 178.392 89.629 178.08C89.893 177.768 90.025 177.456 90.025 177.144C90.025 176.952 89.929 176.772 89.737 176.604C89.545 176.412 89.197 176.28 88.693 176.208C88.405 176.16 88.129 176.124 87.865 176.1C87.625 176.052 87.373 176.028 87.109 176.028C86.437 176.94 85.777 177.864 85.129 178.8C84.505 179.712 83.833 180.612 83.113 181.5C82.945 181.668 82.801 181.752 82.681 181.752C82.537 181.752 82.465 181.68 82.465 181.536C82.465 181.392 82.537 181.248 82.681 181.104C83.977 179.52 85.093 177.828 86.029 176.028C85.909 176.028 85.729 176.028 85.489 176.028C85.249 176.004 85.057 175.98 84.913 175.956C84.745 175.908 84.613 175.836 84.517 175.74C84.421 175.644 84.373 175.548 84.373 175.452C84.373 175.308 84.433 175.224 84.553 175.2C84.865 175.104 85.201 174.96 85.561 174.768C85.921 174.576 86.257 174.324 86.569 174.012C86.905 173.676 87.217 173.328 87.505 172.968C87.793 172.584 88.021 172.296 88.189 172.104C88.357 171.984 88.537 171.924 88.729 171.924C88.849 171.924 88.957 171.96 89.053 172.032C89.173 172.104 89.233 172.212 89.233 172.356C89.233 172.524 89.161 172.74 89.017 173.004C88.801 173.34 88.561 173.712 88.297 174.12C88.057 174.528 87.829 174.9 87.613 175.236C88.045 175.26 88.477 175.284 88.909 175.308C89.341 175.332 89.785 175.344 90.241 175.344C90.481 175.344 90.709 175.344 90.925 175.344C91.165 175.32 91.405 175.308 91.645 175.308C92.365 175.308 92.725 175.488 92.725 175.848C92.725 176.088 92.593 176.388 92.329 176.748C92.089 177.084 91.789 177.456 91.429 177.864C90.613 178.8 89.917 179.784 89.341 180.816C88.765 181.848 88.381 182.64 88.189 183.192C87.997 183.768 87.901 184.2 87.901 184.488C87.901 185.064 88.129 185.352 88.585 185.352C88.993 185.352 89.485 185.148 90.061 184.74C90.661 184.332 91.273 183.84 91.897 183.264C92.521 182.664 93.085 182.088 93.589 181.536C94.093 180.96 94.453 180.528 94.669 180.24C94.717 180.168 94.789 180.132 94.885 180.132C94.981 180.132 95.065 180.18 95.137 180.276C95.209 180.348 95.209 180.444 95.137 180.564C94.873 180.972 94.489 181.488 93.985 182.112C93.481 182.712 92.917 183.312 92.293 183.912C91.669 184.512 91.057 185.028 90.457 185.46C90.145 185.7 89.713 185.916 89.161 186.108C88.633 186.324 88.129 186.432 87.649 186.432ZM102.128 188.772C101.6 188.772 101.168 188.604 100.832 188.268C100.496 187.932 100.328 187.464 100.328 186.864C100.328 186.528 100.4 186.156 100.544 185.748C100.664 185.316 100.88 184.86 101.192 184.38C101.744 183.516 102.452 182.556 103.316 181.5C104.204 180.42 105.14 179.352 106.124 178.296C107.108 177.24 108.032 176.28 108.896 175.416C109.784 174.528 110.492 173.844 111.02 173.364C111.26 172.644 111.488 171.9 111.704 171.132C111.944 170.364 112.184 169.572 112.424 168.756C111.752 169.38 110.984 169.848 110.12 170.16C109.28 170.472 108.488 170.652 107.744 170.7H107.708C107.468 170.7 107.348 170.616 107.348 170.448C107.348 170.256 107.492 170.148 107.78 170.124C108.476 170.052 109.196 169.788 109.94 169.332C110.684 168.852 111.368 168.252 111.992 167.532C112.64 166.788 113.132 165.996 113.468 165.156C113.516 165.012 113.672 164.904 113.936 164.832C114.224 164.76 114.524 164.724 114.836 164.724C115.1 164.724 115.328 164.76 115.52 164.832C115.736 164.88 115.82 164.988 115.772 165.156C115.34 166.26 114.92 167.328 114.512 168.36C114.104 169.368 113.708 170.352 113.324 171.312C114.74 170.112 116.06 169.116 117.284 168.324C118.532 167.508 119.54 167.076 120.308 167.028C121.676 166.956 122.744 167.184 123.512 167.712C124.304 168.24 124.856 168.948 125.168 169.836C125.504 170.7 125.672 171.624 125.672 172.608C125.672 172.848 125.66 173.076 125.636 173.292C125.636 173.508 125.624 173.724 125.6 173.94C125.48 175.044 125.24 176.304 124.88 177.72C124.52 179.136 124.136 180.456 123.728 181.68C123.68 181.8 123.608 182.016 123.512 182.328C123.416 182.616 123.404 182.76 123.476 182.76C123.5 182.76 123.62 182.604 123.836 182.292C124.436 181.308 125.012 180.348 125.564 179.412C126.14 178.452 126.752 177.468 127.4 176.46C128.36 174.972 129.404 173.472 130.532 171.96C131.684 170.448 132.836 169.092 133.988 167.892C134.444 167.412 134.912 167.052 135.392 166.812C135.896 166.572 136.364 166.452 136.796 166.452C137.276 166.452 137.672 166.62 137.984 166.956C138.32 167.268 138.488 167.76 138.488 168.432C138.488 168.6 138.464 168.792 138.416 169.008C138.392 169.2 138.356 169.416 138.308 169.656C138.02 170.808 137.684 171.864 137.3 172.824C136.916 173.784 136.532 174.732 136.148 175.668C135.764 176.58 135.416 177.54 135.104 178.548C134.816 179.556 134.612 180.672 134.492 181.896C134.468 182.112 134.444 182.316 134.42 182.508C134.42 182.7 134.42 182.88 134.42 183.048C134.42 183.864 134.54 184.464 134.78 184.848C135.02 185.208 135.332 185.388 135.716 185.388C136.172 185.388 136.7 185.196 137.3 184.812C137.924 184.404 138.548 183.912 139.172 183.336C139.796 182.736 140.36 182.16 140.864 181.608C141.368 181.032 141.74 180.576 141.98 180.24C142.028 180.168 142.1 180.132 142.196 180.132C142.292 180.132 142.376 180.168 142.448 180.24C142.52 180.312 142.52 180.408 142.448 180.528C142.136 181.008 141.692 181.572 141.116 182.22C140.564 182.844 139.976 183.456 139.352 184.056C138.752 184.632 138.212 185.1 137.732 185.46C137.372 185.724 136.952 185.94 136.472 186.108C136.016 186.276 135.56 186.36 135.104 186.36C134.576 186.36 134.096 186.228 133.664 185.964C133.232 185.7 132.932 185.244 132.764 184.596C132.692 184.356 132.644 184.104 132.62 183.84C132.596 183.576 132.584 183.3 132.584 183.012C132.584 182.004 132.728 180.888 133.016 179.664C133.304 178.416 133.664 177.18 134.096 175.956C134.528 174.708 134.936 173.58 135.32 172.572C135.728 171.54 136.04 170.724 136.256 170.124C136.424 169.788 136.508 169.476 136.508 169.188C136.508 168.684 136.292 168.432 135.86 168.432C135.5 168.432 135.08 168.636 134.6 169.044C133.904 169.644 133.136 170.424 132.296 171.384C131.48 172.344 130.64 173.4 129.776 174.552C128.936 175.704 128.108 176.892 127.292 178.116C126.5 179.316 125.768 180.48 125.096 181.608C124.448 182.712 123.92 183.696 123.512 184.56C123.344 184.92 123.152 185.1 122.936 185.1C122.768 185.1 122.6 184.992 122.432 184.776C122.288 184.56 122.168 184.332 122.072 184.092C122 183.828 121.988 183.648 122.036 183.552C122.348 182.784 122.636 181.848 122.9 180.744C123.164 179.616 123.38 178.428 123.548 177.18C123.716 175.908 123.8 174.696 123.8 173.544C123.8 172.008 123.608 170.712 123.224 169.656C122.84 168.576 122.168 168.036 121.208 168.036C120.584 168.036 119.792 168.3 118.832 168.828C117.872 169.356 116.828 170.064 115.7 170.952C114.596 171.84 113.456 172.824 112.28 173.904C112.064 174.432 111.74 175.2 111.308 176.208C110.9 177.216 110.408 178.332 109.832 179.556C109.28 180.78 108.656 182.004 107.96 183.228C107.288 184.428 106.592 185.484 105.872 186.396C105.224 187.212 104.576 187.812 103.928 188.196C103.28 188.58 102.68 188.772 102.128 188.772ZM102.308 187.512C102.932 187.512 103.568 187.176 104.216 186.504C104.888 185.856 105.548 185.028 106.196 184.02C106.868 182.988 107.48 181.92 108.032 180.816C108.584 179.712 109.052 178.692 109.436 177.756C109.844 176.82 110.132 176.124 110.3 175.668C109.628 176.316 108.92 177.036 108.176 177.828C107.432 178.596 106.7 179.388 105.98 180.204C105.284 180.996 104.648 181.74 104.072 182.436C103.496 183.132 103.04 183.708 102.704 184.164C102.32 184.692 102.032 185.172 101.84 185.604C101.672 186.012 101.588 186.372 101.588 186.684C101.588 187.236 101.828 187.512 102.308 187.512ZM144.779 186.54C143.699 186.54 142.763 186.288 141.971 185.784C141.179 185.28 140.783 184.512 140.783 183.48C140.783 182.928 140.951 182.256 141.287 181.464C141.527 180.912 141.971 180.276 142.619 179.556C143.267 178.836 144.023 178.14 144.887 177.468C145.751 176.772 146.627 176.208 147.515 175.776C148.403 175.32 149.207 175.092 149.927 175.092C150.191 175.092 150.431 175.128 150.646 175.2C151.055 175.344 151.331 175.572 151.475 175.884C151.643 176.196 151.727 176.52 151.727 176.856C151.727 177.168 151.679 177.468 151.583 177.756C151.487 178.044 151.367 178.296 151.223 178.512C150.791 179.16 150.167 179.736 149.351 180.24C148.559 180.744 147.743 181.14 146.903 181.428C146.087 181.716 145.415 181.884 144.887 181.932H144.814C144.503 181.932 144.347 181.836 144.347 181.644C144.347 181.524 144.443 181.464 144.635 181.464C145.211 181.416 145.931 181.152 146.795 180.672C147.683 180.168 148.463 179.652 149.135 179.124C149.423 178.884 149.758 178.548 150.143 178.116C150.551 177.684 150.755 177.264 150.755 176.856C150.755 176.424 150.551 176.208 150.143 176.208C149.927 176.208 149.699 176.256 149.459 176.352C149.243 176.448 149.063 176.52 148.919 176.568C148.223 176.904 147.455 177.432 146.615 178.152C145.775 178.848 145.007 179.64 144.311 180.528C143.639 181.392 143.171 182.268 142.907 183.156C142.835 183.348 142.787 183.54 142.763 183.732C142.739 183.9 142.727 184.068 142.727 184.236C142.727 184.812 142.907 185.22 143.267 185.46C143.651 185.7 144.107 185.82 144.635 185.82C145.427 185.82 146.243 185.652 147.083 185.316C147.923 184.956 148.739 184.5 149.531 183.948C150.323 183.396 151.043 182.808 151.691 182.184C152.363 181.536 152.927 180.912 153.383 180.312C153.455 180.216 153.539 180.168 153.635 180.168C153.731 180.144 153.791 180.156 153.815 180.204C153.911 180.228 153.959 180.3 153.959 180.42C153.959 180.516 153.935 180.612 153.887 180.708C153.215 181.644 152.399 182.556 151.439 183.444C150.503 184.332 149.459 185.076 148.307 185.676C147.179 186.252 146.003 186.54 144.779 186.54Z" fill="#324B4F"/>
<g clip-path="url(#clip0_0_4)">
<path d="M56.2451 33.928C56.261 33.9339 56.2753 33.9431 56.2912 33.9489C57.4229 34.3551 58.6657 34.4223 59.8831 34.1413C61.7658 33.7066 63.2974 32.5093 64.0848 30.8555C64.82 29.3062 65.4138 27.5732 65.8723 25.7096C61.157 27.7009 57.6399 30.7299 56.2451 33.928Z" fill="#324B4F"/>
<path d="M75.6166 23.447C76.8621 24.9329 78.1586 26.2269 79.4874 27.2785C80.9178 28.4079 82.8137 28.8076 84.6897 28.3754L84.6901 28.3753C85.9128 28.093 87.0034 27.4847 87.8438 26.6158C87.8554 26.6036 87.8641 26.5895 87.8756 26.5773C85.2153 24.3199 80.7252 23.1562 75.6166 23.447Z" fill="#324B4F"/>
<path d="M91.2177 15.2834C89.6305 15.6498 88.6393 17.2361 89.0136 18.8215C89.3148 20.1259 90.4428 21.0326 91.7188 21.1103C91.4923 22.818 91.0391 24.4041 90.3362 25.841C89.9869 26.5506 89.5294 27.186 89.0029 27.7379C86.3098 30.5198 81.6656 31.054 78.4871 28.5435C76.624 27.0699 75.0161 25.3389 73.6679 23.6223C71.9583 21.4513 70.673 19.2899 69.8121 17.676C71.0258 17.0896 71.7118 15.7228 71.3943 14.3477C71.0279 12.7604 69.4356 11.779 67.8484 12.1454C66.2612 12.5118 65.2778 14.0962 65.6442 15.6836C65.9617 17.0586 67.1833 17.9768 68.5314 17.9718C68.473 19.7979 68.2671 22.3119 67.6979 25.0091C67.2466 27.141 66.5601 29.4017 65.5413 31.5488C63.7965 35.2126 59.3901 36.7763 55.7439 35.466C55.0306 35.2086 54.3408 34.8382 53.7158 34.3535C52.4481 33.3798 51.3437 32.145 50.3757 30.7132C51.4964 30.082 52.1128 28.7726 51.8038 27.4702C51.4373 25.8829 49.8512 24.8917 48.2657 25.2659C46.6783 25.6324 45.6872 27.2186 46.0537 28.8059C46.428 30.3914 48.0142 31.3826 49.6015 31.0161C49.7194 30.9889 49.8275 30.9556 49.9339 30.9145L57.4545 49.0421L56.2602 49.3179L56.9369 52.2489L95.291 43.3942L94.6143 40.4631L93.4561 40.6809L92.2103 21.0881C92.324 21.0783 92.4358 21.0609 92.5537 21.0337C94.1391 20.6593 95.1302 19.0731 94.756 17.4877C94.3895 15.9003 92.8032 14.9091 91.2177 15.2834ZM74.7577 41.9491C72.5855 42.4506 70.2198 40.238 69.4739 37.0072C68.7279 33.7762 69.8843 30.7505 72.0565 30.249C74.2288 29.7475 76.5944 31.96 77.3403 35.1911C78.0862 38.4218 76.9299 41.4476 74.7577 41.9491Z" fill="#324B4F"/>
</g>
<defs>
<clipPath id="clip0_0_4">
<rect width="50" height="50" fill="white" transform="translate(42 11.2476) rotate(-13)"/>
</clipPath>
</defs>
</svg>
